<?xml version="1.0" encoding="utf-8"?>
<!-- Generator: Adobe Illustrator 21.0.2, SVG Export Plug-In . SVG Version: 6.00 Build 0)  -->
<svg version="1.1" id="Layer_1" xmlns="http://www.w3.org/2000/svg" xmlns:xlink="http://www.w3.org/1999/xlink" x="0px" y="0px"
	 viewBox="0 0 117 117" style="enable-background:new 0 0 117 117;" xml:space="preserve">
<style type="text/css">
	.st0{fill:#2A2F35;}
	.st1{fill:#FFFFFF;}
</style>
<g>
	<path class="st0" d="M112,117.7H5c-2.8,0-5-2.2-5-5V5.7c0-2.8,2.2-5,5-5h107c2.8,0,5,2.2,5,5v107C117,115.5,114.8,117.7,112,117.7z
		"/>
	<g>
		<path class="st1" d="M78.8,77c0-0.2,0-0.3,0-0.5v-0.1V29.8l0,0c0-1-0.8-1.8-1.8-1.8c-0.5,0-0.9,0.2-1.2,0.4L55.3,41.9
			c0,0-0.3,0.2-0.7,0.2c-0.5,0-0.7-0.2-0.7-0.2L33.4,28.5c-0.3-0.3-0.7-0.4-1.2-0.4c-1,0-1.8,0.8-1.8,1.8l0,0v46.4v1v0.1
			c0.1,0.9,0.5,1.6,1,2.2v0.1l0.2,0.1l0,0L52.3,94l0,0c0.6,0.5,1.3,0.8,2.2,0.8h0.1h0.1c0.8,0,1.6-0.3,2.2-0.8l0,0l20.5-14.1
			l0.1-0.1l0.1-0.1l0,0c0,0,0.1,0,0.1-0.1l0.1-0.1l0,0c0.6-0.6,1-1.4,1.1-2.2l0,0v-0.1C78.8,77,78.8,77,78.8,77z M72,74.8
			c0,0,0,0.3-0.1,0.6c-0.1,0.3-0.4,0.4-0.4,0.4L55.3,86.4c0,0-0.2,0.2-0.7,0.2s-0.7-0.2-0.7-0.2L37.8,75.9c0,0-0.2-0.1-0.4-0.4
			c-0.1-0.2-0.2-0.4-0.2-0.5V42.5c0-0.2,0.1-0.7,0.5-1c0.7-0.5,1.4,0,1.4,0l13.6,8.3c0.5,0.4,1.2,0.6,1.9,0.6c0.6,0,1.3-0.2,1.8-0.5
			l0,0l14-8.5c0.3-0.1,0.7-0.1,1.1,0.1c0.5,0.3,0.5,0.8,0.5,1V74.8z"/>
		<path class="st1" d="M45.3,63.7L45.3,63.7l-8-5c-0.2-0.1-0.5-0.2-0.7-0.2c-0.7,0-1.2,0.5-1.2,1.2l0,0l0,0l0,0l0,0v16.5l0,0
			c0,0.3,0.1,0.6,0.3,0.8c0.1,0.1,0.2,0.2,0.4,0.2l7.9,5l0,0l0,0l0,0c0.2,0.1,0.4,0.2,0.7,0.2c0.7,0,1.2-0.5,1.2-1.2l0,0V64.6l0,0
			C45.9,64.2,45.6,63.9,45.3,63.7z"/>
	</g>
</g>
<path class="st1" d="M45.3,44.1L45.3,44.1l-8-5c-0.2-0.1-0.5-0.2-0.7-0.2c-0.7,0-1.2,0.5-1.2,1.2l0,0l0,0l0,0l0,0v16.5l0,0
	c0,0.3,0.1,0.6,0.3,0.8c0.1,0.1,0.2,0.2,0.4,0.2l7.9,5l0,0l0,0l0,0c0.2,0.1,0.4,0.2,0.7,0.2c0.7,0,1.2-0.5,1.2-1.2l0,0V45l0,0
	C45.9,44.6,45.6,44.3,45.3,44.1z"/>
<path class="st1" d="M45.3,57.6L45.3,57.6l-8-5c-0.2-0.1-0.5-0.2-0.7-0.2c-0.7,0-1.2,0.5-1.2,1.2l0,0l0,0l0,0l0,0v16.5l0,0
	c0,0.3,0.1,0.6,0.3,0.8c0.1,0.1,0.2,0.2,0.4,0.2l7.9,5l0,0l0,0l0,0c0.2,0.1,0.4,0.2,0.7,0.2c0.7,0,1.2-0.5,1.2-1.2l0,0V58.5l0,0
	C45.9,58.1,45.6,57.8,45.3,57.6z"/>
<path class="st1" d="M54,68L54,68l-8-5c-0.2-0.1-0.5-0.2-0.7-0.2c-0.7,0-1.2,0.5-1.2,1.2l0,0l0,0l0,0l0,0v16.5l0,0
	c0,0.3,0.1,0.6,0.3,0.8c0.1,0.1,0.2,0.2,0.4,0.2l7.9,5l0,0l0,0l0,0c0.2,0.1,0.4,0.2,0.7,0.2c0.7,0,1.2-0.5,1.2-1.2l0,0V68.9l0,0
	C54.6,68.5,54.3,68.2,54,68z"/>
<path class="st1" d="M37.1,45.7L37.1,45.7l30.1-5c0.8-0.1,1.9-0.2,2.6-0.2c2.6,0,4.5,0.5,4.5,1.2l0,0l0,0l0,0l0,0v16.5l0,0
	c0,0.3-0.4,0.6-1.1,0.8c-0.4,0.1-0.8,0.2-1.5,0.2l-29.8,5l0,0l0,0l0,0c-0.8,0.1-1.5,0.2-2.6,0.2c-2.6,0-4.5-0.5-4.5-1.2l0,0V46.6
	l0,0C34.9,46.2,36,45.9,37.1,45.7z"/>
<path class="st1" d="M72.2,58.7L72.2,58.7l-8-5c-0.2-0.1-0.5-0.2-0.7-0.2c-0.7,0-1.2,0.5-1.2,1.2l0,0l0,0l0,0l0,0v16.5l0,0
	c0,0.3,0.1,0.6,0.3,0.8c0.1,0.1,0.2,0.2,0.4,0.2l7.9,5l0,0l0,0l0,0c0.2,0.1,0.4,0.2,0.7,0.2c0.7,0,1.2-0.5,1.2-1.2l0,0V59.6l0,0
	C72.8,59.2,72.5,58.9,72.2,58.7z"/>
<path class="st1" d="M61.7,60.1L61.7,60.1l-8-5c-0.2-0.1-0.5-0.2-0.7-0.2c-0.7,0-1.2,0.5-1.2,1.2l0,0l0,0l0,0l0,0v16.5l0,0
	c0,0.3,0.1,0.6,0.3,0.8c0.1,0.1,0.2,0.2,0.4,0.2l7.9,5l0,0l0,0l0,0c0.2,0.1,0.4,0.2,0.7,0.2c0.7,0,1.2-0.5,1.2-1.2l0,0V61l0,0
	C62.3,60.6,62,60.3,61.7,60.1z"/>
<path class="st1" d="M53.1,57.6L53.1,57.6l-8-5c-0.2-0.1-0.5-0.2-0.7-0.2c-0.7,0-1.2,0.5-1.2,1.2l0,0l0,0l0,0l0,0v16.5l0,0
	c0,0.3,0.1,0.6,0.3,0.8c0.1,0.1,0.2,0.2,0.4,0.2l7.9,5l0,0l0,0l0,0c0.2,0.1,0.4,0.2,0.7,0.2c0.7,0,1.2-0.5,1.2-1.2l0,0V58.5l0,0
	C53.7,58.1,53.4,57.8,53.1,57.6z"/>
<path class="st1" d="M59.8,70L59.8,70l-8-5c-0.2-0.1-0.5-0.2-0.7-0.2c-0.7,0-1.2,0.5-1.2,1.2l0,0l0,0l0,0l0,0v16.5l0,0
	c0,0.3,0.1,0.6,0.3,0.8c0.1,0.1,0.2,0.2,0.4,0.2l7.9,5l0,0l0,0l0,0c0.2,0.1,0.4,0.2,0.7,0.2c0.7,0,1.2-0.5,1.2-1.2l0,0V70.9l0,0
	C60.4,70.5,60.1,70.2,59.8,70z"/>
<path class="st1" d="M58.4,73.7L58.4,73.7l-8-5c-0.2-0.1-0.5-0.2-0.7-0.2c-0.7,0-1.2,0.5-1.2,1.2l0,0l0,0l0,0l0,0v16.5l0,0
	c0,0.3,0.1,0.6,0.3,0.8c0.1,0.1,0.2,0.2,0.4,0.2l7.9,5l0,0l0,0l0,0c0.2,0.1,0.4,0.2,0.7,0.2c0.7,0,1.2-0.5,1.2-1.2l0,0V74.6l0,0
	C59,74.2,58.7,73.9,58.4,73.7z"/>
<path class="st1" d="M65.1,66.6L65.1,66.6l-8-5c-0.2-0.1-0.5-0.2-0.7-0.2c-0.7,0-1.2,0.5-1.2,1.2l0,0l0,0l0,0l0,0v16.5l0,0
	c0,0.3,0.1,0.6,0.3,0.8c0.1,0.1,0.2,0.2,0.4,0.2l7.9,5l0,0l0,0l0,0c0.2,0.1,0.4,0.2,0.7,0.2c0.7,0,1.2-0.5,1.2-1.2l0,0V67.5l0,0
	C65.7,67.1,65.4,66.8,65.1,66.6z"/>
<path class="st1" d="M70.3,64.4L70.3,64.4l-8-5c-0.2-0.1-0.5-0.2-0.7-0.2c-0.7,0-1.2,0.5-1.2,1.2l0,0l0,0l0,0l0,0v16.5l0,0
	c0,0.3,0.1,0.6,0.3,0.8c0.1,0.1,0.2,0.2,0.4,0.2l7.9,5l0,0l0,0l0,0c0.2,0.1,0.4,0.2,0.7,0.2c0.7,0,1.2-0.5,1.2-1.2l0,0V65.3l0,0
	C70.9,64.9,70.6,64.6,70.3,64.4z"/>
</svg>
